<?xml version="1.0" encoding="UTF-8"?>
<!-- Created with Inkscape (http://www.inkscape.org/) -->
<svg width="111.36mm" height="96.804mm" version="1.1" viewBox="0 0 111.36 96.804" xml:space="preserve" xmlns="http://www.w3.org/2000/svg"><path d="m14.613 0.058393a2.5002 2.5002 0 0 0-2.8319 1.449l-11.577 26.769a2.5002 2.5002 0 0 0-0.09147 1.7363l6.1541 19.715a2.5002 2.5002 0 0 0 2.1601 1.7441l38.305 3.4825c1.9255 0.17509 3.3814 1.7235 3.4375 3.6561l1.0294 35.578a2.5002 2.5002 0 0 0 2.5508 2.4278l55.16-1.1798a2.5002 2.5002 0 0 0 2.3632-3.1383l-9.6175-36.33 6.7541-32.705a2.5002 2.5002 0 0 0-1.91-2.9471zm-0.8537 59.492a2.5002 2.5002 0 0 0-2.127 4.1155l27.603 32.262a2.5002 2.5002 0 0 0 4.4008-1.6976l-0.86351-29.832a2.5002 2.5002 0 0 0-2.2732-2.4179z" color="#000000" fill="#fff" stroke-linejoin="round" style="-inkscape-stroke:none"/></svg>
